<?xml version="1.0" encoding="UTF-8" standalone="no"?>
<!-- Created with Inkscape (http://www.inkscape.org/) -->

<svg
   width="2560"
   height="1440"
   viewBox="0 0 677.33333 381"
   version="1.1"
   id="svg1"
   xmlns="http://www.w3.org/2000/svg"
   xmlns:svg="http://www.w3.org/2000/svg">
  <defs
     id="defs1">
    <linearGradient
       id="swatch6">
      <stop
         style="stop-color:#ffb906;stop-opacity:0.76395941;"
         offset="0"
         id="stop6" />
    </linearGradient>
  </defs>
  <g
     id="layer1">
    <rect
       style="fill:#04082b;stroke-width:0.365001;stroke-dasharray:0.365001, 0.730001;stroke-dashoffset:0;fill-opacity:0.83502537"
       id="rect6"
       width="681.32007"
       height="384.74969"
       x="-2.1594932"
       y="-2.1594932" />
  </g>
  <g
     id="layer2">
    <path
       d="m -0.48249998,-0.48249998 0,381.48249998 M 12.746667,-0.48249998 12.746667,381 M 25.975833,-0.48249998 25.975833,381 M 39.205,-0.48249998 39.205,381 M 52.434166,-0.48249998 52.434166,381 M 65.663333,-0.48249998 65.663333,381 M 78.8925,-0.48249998 78.8925,381 M 92.121666,-0.48249998 92.121666,381 M 105.35083,-0.48249998 105.35083,381 M 118.58,-0.48249998 118.58,381 M 131.80917,-0.48249998 131.80917,381 M 145.03833,-0.48249998 145.03833,381 M 158.2675,-0.48249998 158.2675,381 M 171.49667,-0.48249998 171.49667,381 M 184.72583,-0.48249998 184.72583,381 M 197.955,-0.48249998 197.955,381 M 211.18417,-0.48249998 211.18417,381 M 224.41333,-0.48249998 224.41333,381 M 237.6425,-0.48249998 237.6425,381 M 250.87167,-0.48249998 250.87167,381 M 264.10083,-0.48249998 264.10083,381 M 277.33,-0.48249998 277.33,381 M 290.55917,-0.48249998 290.55917,381 M 303.78833,-0.48249998 303.78833,381 M 317.0175,-0.48249998 317.0175,381 M 330.24667,-0.48249998 330.24667,381 M 343.47583,-0.48249998 343.47583,381 M 356.705,-0.48249998 356.705,381 M 369.93416,-0.48249998 369.93416,381 M 383.16333,-0.48249998 383.16333,381 M 396.3925,-0.48249998 396.3925,381 M 409.62166,-0.48249998 409.62166,381 M 422.85083,-0.48249998 422.85083,381 M 436.08,-0.48249998 436.08,381 M 449.30916,-0.48249998 449.30916,381 M 462.53833,-0.48249998 462.53833,381 M 475.7675,-0.48249998 475.7675,381 M 488.99666,-0.48249998 488.99666,381 M 502.22583,-0.48249998 502.22583,381 M 515.455,-0.48249998 515.455,381 M 528.68416,-0.48249998 528.68416,381 M 541.91333,-0.48249998 541.91333,381 M 555.1425,-0.48249998 555.1425,381 M 568.37166,-0.48249998 568.37166,381 M 581.60083,-0.48249998 581.60083,381 M 594.83,-0.48249998 594.83,381 M 608.05916,-0.48249998 608.05916,381 M 621.28833,-0.48249998 621.28833,381 M 634.5175,-0.48249998 634.5175,381 M 647.74666,-0.48249998 647.74666,381 M 660.97583,-0.48249998 660.97583,381 M 674.205,-0.48249998 674.205,381 M -0.48249998,-0.48249998 l 677.81582998,0 M -0.48249998,12.746667 l 677.81582998,0 m -677.81582998,13.229166 677.81582998,0 M -0.48249998,39.205 l 677.81582998,0 m -677.81582998,13.229166 677.81582998,0 m -677.81582998,13.229167 677.81582998,0 M -0.48249998,78.8925 l 677.81582998,0 m -677.81582998,13.229166 677.81582998,0 m -677.81582998,13.229164 677.81582998,0 M -0.48249998,118.58 l 677.81582998,0 m -677.81582998,13.22917 677.81582998,0 m -677.81582998,13.22916 677.81582998,0 m -677.81582998,13.22917 677.81582998,0 m -677.81582998,13.22917 677.81582998,0 m -677.81582998,13.22916 677.81582998,0 M -0.48249998,197.955 l 677.81582998,0 m -677.81582998,13.22917 677.81582998,0 m -677.81582998,13.22916 677.81582998,0 m -677.81582998,13.22917 677.81582998,0 m -677.81582998,13.22917 677.81582998,0 m -677.81582998,13.22916 677.81582998,0 M -0.48249998,277.33 l 677.81582998,0 m -677.81582998,13.22917 677.81582998,0 m -677.81582998,13.22916 677.81582998,0 m -677.81582998,13.22917 677.81582998,0 m -677.81582998,13.22917 677.81582998,0 m -677.81582998,13.22916 677.81582998,0 M -0.48249998,356.705 l 677.81582998,0 m -677.81582998,13.22916 677.81582998,0"
       style="fill:none;stroke:#ae8f1a;stroke-width:0.529;stroke-opacity:0.15228426;stroke-dasharray:6.34799981,0.52899998;stroke-dashoffset:0"
       id="path7" />
  </g>
  <g
     id="layer3">
    <path
       id="path6-8"
       style="fill:#e0b83f;fill-opacity:0.93333334;stroke:none;stroke-width:1.11;stroke-dasharray:1.11, 4.44002003;stroke-dashoffset:0;stroke-opacity:0.456853"
       d="M 446.65956 33.154565 L 418.68659 41.603662 L 328.75616 41.603662 L 323.27949 45.446838 L 221.00356 45.432369 L 221.08935 46.610075 L 581.86733 46.660201 L 581.86733 167.77064 L 582.91119 168.85274 L 582.91119 45.484562 L 582.91119 42.710055 L 568.22888 33.154565 L 446.65956 33.154565 z M 517.29091 36.496997 L 519.27528 36.496997 L 519.27528 38.641052 L 517.29091 38.641052 L 517.29091 36.496997 z M 521.25449 36.496997 L 523.23886 36.496997 L 523.23886 38.641052 L 521.25449 38.641052 L 521.25449 36.496997 z M 525.2067 36.496997 L 527.19108 36.496997 L 527.19108 38.641052 L 525.2067 38.641052 L 525.2067 36.496997 z M 529.16667 36.5125 L 567.26667 36.5125 L 567.26667 38.629167 L 529.16667 38.629167 L 529.16667 36.5125 z M 103.23246 198.11917 L 103.23246 318.35008 L 103.22781 318.35008 L 103.22781 321.12407 L 117.91012 330.67956 L 239.47996 330.67956 L 267.45241 322.23098 L 358.45616 322.23098 L 362.91273 318.35059 L 405.9375 318.35059 L 406.27649 317.17082 L 104.27942 317.17082 L 104.27942 198.56824 L 103.23246 198.11917 z " />
  </g>
</svg>
